<?xml version="1.0" encoding="UTF-8"?>
<svg width="20px" height="20px" viewBox="0 0 20 20" version="1.1" xmlns="http://www.w3.org/2000/svg" xmlns:xlink="http://www.w3.org/1999/xlink">
    <!-- Generator: Sketch 59.1 (86144) - https://sketch.com -->
    <title>Group 7</title>
    <desc>Created with Sketch.</desc>
    <g id="Page-1" stroke="none" stroke-width="1" fill="none" fill-rule="evenodd">
        <g id="Service-Silo" transform="translate(-1265.000000, -633.000000)">
            <g id="Breadstrip" transform="translate(115.000000, 632.000000)">
                <g id="Shares" transform="translate(994.000000, 0.000000)">
                    <g id="Group-7" transform="translate(156.000000, 1.000000)">
                        <rect id="Rectangle" fill="#F36F3B" x="0" y="0" width="20" height="20"></rect>
                        <path d="M16.5,4 C16.9166687,4 17.2708319,4.14583187 17.5625,4.4375 C17.8541681,4.72916813 18,5.08333125 18,5.5 L18,14.5 C18,14.9166687 17.8541681,15.2708319 17.5625,15.5625 C17.2708319,15.8541681 16.9166687,16 16.5,16 L3.5,16 C3.08333125,16 2.72916813,15.8541681 2.4375,15.5625 C2.14583187,15.2708319 2,14.9166687 2,14.5 L2,5.5 C2,5.08333125 2.14583187,4.72916813 2.4375,4.4375 C2.72916813,4.14583187 3.08333125,4 3.5,4 L16.5,4 Z M16.5,5.5 L3.5,5.5 L3.5,6.78125 C4.22917031,7.36458625 5.63540625,8.46874187 7.71875,10.09375 C7.71875,10.1145834 7.86458187,10.2447905 8.15625,10.484375 C8.44791813,10.7239595 8.66666594,10.8906245 8.8125,10.984375 C8.95833406,11.0781255 9.15104047,11.1874994 9.390625,11.3125 C9.63020953,11.4375006 9.8333325,11.5 10,11.5 C10.1666675,11.5 10.3697905,11.4375006 10.609375,11.3125 C10.8489595,11.1874994 11.0416659,11.0781255 11.1875,10.984375 C11.3333341,10.8906245 11.5520819,10.7239595 11.84375,10.484375 C12.1354181,10.2447905 12.28125,10.1145834 12.28125,10.09375 C14.3645938,8.46874187 15.7708297,7.36458625 16.5,6.78125 L16.5,5.5 Z M3.5,14.5 L16.5,14.5 L16.5,8.6875 C15.7708297,9.27083625 14.6770906,10.1354109 13.21875,11.28125 C13.1770831,11.3020834 13.026043,11.4270822 12.765625,11.65625 C12.505207,11.8854178 12.3020841,12.0520828 12.15625,12.15625 C12.0104159,12.2604172 11.8020847,12.3906242 11.53125,12.546875 C11.2604153,12.7031258 11,12.817708 10.75,12.890625 C10.5,12.963542 10.2500012,13 10,13 C9.74999875,13 9.49479297,12.963542 9.234375,12.890625 C8.97395703,12.817708 8.71354297,12.6979175 8.453125,12.53125 C8.19270703,12.3645825 7.98958406,12.2291672 7.84375,12.125 C7.69791594,12.0208328 7.49479297,11.8593761 7.234375,11.640625 C6.97395703,11.4218739 6.82291688,11.3020834 6.78125,11.28125 C5.32290937,10.1354109 4.22917031,9.27083625 3.5,8.6875 L3.5,14.5 Z" id="" fill="#FFFFFF" fill-rule="nonzero"></path>
                    </g>
                </g>
            </g>
        </g>
    </g>
</svg>