<svg xmlns="http://www.w3.org/2000/svg" viewBox="0 0 169.891 234.504"><g data-name="Layer 2"><g data-name="ART"><path d="M130.3 215.364c0 9.88-19.926 17.89-44.506 17.89s-44.505-8.01-44.505-17.89c6.374-24.723 19.926-17.89 44.505-17.89s38.844-6.102 44.505 17.89z" fill="#b5c933"/><path d="M85.794 234.504c-25.657 0-45.755-8.407-45.755-19.14a1.252 1.252 0 01.04-.313c5.395-20.928 16.264-20.29 32.713-19.316 3.879.229 8.275.489 13.002.489 4.445 0 8.646-.206 12.352-.387 17.166-.839 28.5-1.395 33.37 19.24a1.234 1.234 0 01.034.286c0 10.734-20.099 19.14-45.756 19.14zm-43.253-18.988c.22 8.953 19.938 16.488 43.253 16.488 23.325 0 43.05-7.542 43.254-16.501-4.406-18.462-13.788-18-30.78-17.169-3.735.183-7.967.39-12.474.39-4.8 0-9.236-.262-13.15-.493-16.237-.958-25.211-1.49-30.103 17.285z" fill="#3e4147"/><path d="M139.67 177.438c0 25.809-24.12 43.266-53.876 43.266s-53.876-17.457-53.876-43.266 24.121-46.73 53.876-46.73 53.876 20.921 53.876 46.73z" fill="#b5c933"/><path d="M85.794 221.954c-14.941 0-28.743-4.339-38.864-12.219-10.487-8.164-16.262-19.633-16.262-32.297 0-26.457 24.73-47.981 55.126-47.981 30.397 0 55.127 21.524 55.127 47.981 0 12.664-5.775 24.133-16.263 32.298-10.12 7.88-23.923 12.218-38.864 12.218zm0-89.997c-29.019 0-52.626 20.403-52.626 45.481 0 11.875 5.433 22.645 15.298 30.325 9.683 7.539 22.94 11.691 37.328 11.691s27.645-4.152 37.33-11.691c9.864-7.68 15.297-18.45 15.297-30.325 0-25.078-23.608-45.481-52.627-45.481z" fill="#3e4147"/><ellipse cx="68.345" cy="171.921" rx="26.938" ry="23.365" fill="#cedd3e"/><path d="M168.291 130.46L142.282 13.104H27.609L1.467 130.794a3.811 3.811 0 00-.217 1.243c0 9.556 37.472 17.303 83.695 17.303s83.696-7.747 83.696-17.303a3.917 3.917 0 00-.35-1.577z" fill="#eef5fb"/><path d="M84.945 150.59c-22.438 0-43.546-1.81-59.434-5.094C13.873 143.09 0 138.802 0 132.036a5.073 5.073 0 01.26-1.578L26.39 12.832a1.252 1.252 0 011.22-.979h114.673a1.25 1.25 0 011.22.98l25.984 117.244a5.118 5.118 0 01.405 1.96c0 6.765-13.873 11.053-25.511 13.46-15.889 3.283-36.996 5.093-59.435 5.093zM28.612 14.354L2.688 131.064a1.58 1.58 0 01-.039.133 2.564 2.564 0 00-.149.84c0 7.592 33.86 16.053 82.445 16.053 22.274 0 43.201-1.791 58.929-5.042 17.339-3.585 23.517-8.04 23.517-11.012a2.652 2.652 0 00-.245-1.074 1.235 1.235 0 01-.076-.232L141.28 14.354z" fill="#3e4147"/><ellipse cx="84.945" cy="13.104" rx="57.337" ry="11.854" fill="#dee4eb"/><path d="M84.945 26.208c-28.401 0-58.586-4.593-58.586-13.104S56.544 0 84.945 0s58.587 4.593 58.587 13.104-30.185 13.104-58.587 13.104zm0-23.708C50.196 2.5 28.86 8.676 28.86 13.104s21.337 10.604 56.086 10.604c34.75 0 56.087-6.177 56.087-10.604S119.695 2.5 84.945 2.5z" fill="#3e4147"/><ellipse cx="84.945" cy="13.104" rx="43.697" ry="6.499" fill="#eef5fb"/><path d="M84.945 20.853c-1.835 0-44.946-.088-44.946-7.75 0-7.66 43.111-7.747 44.946-7.747s44.948.087 44.948 7.748c0 7.66-43.113 7.749-44.948 7.749zm-42.42-7.75c1.159 1.923 16.008 5.25 42.42 5.25 26.413 0 41.263-3.327 42.421-5.25-1.159-1.921-16.01-5.247-42.42-5.247s-41.261 3.326-42.42 5.248zm84.88.074zM142.28 135.295a1.25 1.25 0 01-1.235-1.07l-15.4-105.315a1.25 1.25 0 012.474-.361l15.4 105.315a1.251 1.251 0 01-1.056 1.418 1.285 1.285 0 01-.183.013zM110.178 138.014a1.25 1.25 0 01-1.248-1.19l-5.12-106.148a1.25 1.25 0 112.499-.121l5.119 106.148a1.252 1.252 0 01-1.189 1.31h-.061zM67.613 139.9a1.44 1.44 0 01-.112-.005 1.25 1.25 0 01-1.134-1.357l9.698-108.034a1.27 1.27 0 011.357-1.134 1.25 1.25 0 011.134 1.357L68.857 138.76a1.25 1.25 0 01-1.244 1.138zM29.356 135.295a1.272 1.272 0 01-.224-.02 1.249 1.249 0 01-1.006-1.454L47.254 28.506a1.25 1.25 0 112.459.447L30.585 134.27a1.25 1.25 0 01-1.229 1.026z" fill="#3e4147"/><path d="M85.349 16.917c-3.494 0-6.127-1.64-6.127-3.813s2.633-3.814 6.127-3.814 6.127 1.64 6.127 3.813-2.634 3.814-6.127 3.814zm0-5.127c-2.38 0-3.627.976-3.627 1.314s1.247 1.313 3.627 1.313 3.627-.976 3.627-1.313-1.247-1.314-3.627-1.314z" fill="#3e4147"/><path d="M90.225 14.354a1.25 1.25 0 01-.027-2.5l37.875-.82a1.224 1.224 0 011.278 1.222 1.251 1.251 0 01-1.223 1.277l-37.875.82zM80.473 14.354h-.035l-38.43-1.037a1.25 1.25 0 01.034-2.5h.034l38.429 1.037a1.25 1.25 0 01-.032 2.5zM85.725 20.664a1.25 1.25 0 01-1.25-1.25v-3.747a1.25 1.25 0 112.5 0v3.747a1.25 1.25 0 01-1.25 1.25zM85.725 11.79a1.25 1.25 0 01-1.25-1.25V6.93a1.25 1.25 0 012.5 0v3.61a1.25 1.25 0 01-1.25 1.25z" fill="#3e4147"/></g></g></svg>
